<svg xmlns="http://www.w3.org/2000/svg" viewBox="0 0 1024 1024" width="1024" height="1024">
  <defs>
    <linearGradient id="icon-bg-adapters" x1="0" y1="0" x2="1024" y2="1024" gradientUnits="userSpaceOnUse">
      <stop offset="0" stop-color="#2B343B" />
      <stop offset="1" stop-color="#1A2125" />
    </linearGradient>
    <filter id="glow-green" x="-20%" y="-20%" width="140%" height="140%">
      <feGaussianBlur stdDeviation="12" result="blur" />
      <feComposite in="SourceGraphic" in2="blur" operator="over" />
    </filter>
  </defs>

  <rect width="1024" height="1024" fill="#11161A" />
  <rect x="64" y="64" width="896" height="896" rx="220" fill="url(#icon-bg-adapters)" />

  <!-- 6 Radial Adapter Sockets around central Classic Green Mark -->
  <g filter="url(#glow-green)">
    <circle cx="512" cy="220" r="36" fill="#161D22" stroke="#5AA788" stroke-width="6" />
    <circle cx="764" cy="366" r="36" fill="#161D22" stroke="#5AA788" stroke-width="6" />
    <circle cx="764" cy="658" r="36" fill="#161D22" stroke="#5AA788" stroke-width="6" />
    <circle cx="512" cy="804" r="36" fill="#161D22" stroke="#5AA788" stroke-width="6" />
    <circle cx="260" cy="658" r="36" fill="#161D22" stroke="#5AA788" stroke-width="6" />
    <circle cx="260" cy="366" r="36" fill="#161D22" stroke="#5AA788" stroke-width="6" />

    <line x1="512" y1="256" x2="512" y2="340" stroke="#5AA788" stroke-width="6" stroke-dasharray="8 8" />
    <line x1="728" y1="386" x2="650" y2="430" stroke="#5AA788" stroke-width="6" stroke-dasharray="8 8" />
    <line x1="728" y1="638" x2="650" y2="594" stroke="#5AA788" stroke-width="6" stroke-dasharray="8 8" />
    <line x1="512" y1="768" x2="512" y2="684" stroke="#5AA788" stroke-width="6" stroke-dasharray="8 8" />
    <line x1="296" y1="638" x2="374" y2="594" stroke="#5AA788" stroke-width="6" stroke-dasharray="8 8" />
    <line x1="296" y1="386" x2="374" y2="430" stroke="#5AA788" stroke-width="6" stroke-dasharray="8 8" />
  </g>

  <!-- Central Classic Green Autopoies Mark -->
  <g transform="translate(256, 256)" filter="url(#glow-green)">
    <path
      d="M 237.4 310 L 258.2 310 Q 274.6 310 283.5 323.8 L 296.3 343.8 Q 326 390 271.1 390 L 130.9 390 Q 76 390 105.7 343.8 L 230.8 149.3 Q 256 110 281.2 149.3 L 436 390"
      fill="none"
      stroke="#5AA788"
      stroke-width="56"
      stroke-linecap="round"
      stroke-linejoin="round" />
  </g>
</svg>